<?xml version="1.0" standalone="no"?>
<!DOCTYPE svg PUBLIC "-//W3C//DTD SVG 20010904//EN"
 "http://www.w3.org/TR/2001/REC-SVG-20010904/DTD/svg10.dtd">
<svg version="1.0" xmlns="http://www.w3.org/2000/svg"
 width="1300.000000pt" height="230.000000pt" viewBox="0 0  1300 230"
 preserveAspectRatio="xMidYMid meet">

<g transform="translate(0.000000,230.000000) scale(0.100000,-0.100000)"
fill="#000" stroke="none">
<path d="M0 1150 l0 -1150 6500 0 6500 0 0 1150 0 1150 -6500 0 -6500 0 0
-1150z m5709 356 l253 -253 -32 -37 -32 -36 32 -36 32 -37 -263 -263 -264
-264 -265 265 -264 264 34 36 34 35 -34 35 -34 35 254 255 c165 165 262 255
275 255 13 0 110 -90 274 -254z m4012 -24 c51 -31 64 -69 64 -183 0 -93 -1
-99 -31 -140 -30 -41 -36 -45 -89 -51 -32 -4 -60 -10 -63 -13 -12 -11 -19
-104 -12 -145 5 -25 6 -48 4 -51 -8 -14 -100 -20 -128 -9 -26 10 -28 13 -21
48 7 37 7 70 0 390 -3 120 0 165 9 175 9 9 42 11 122 7 90 -4 115 -9 145 -28z
m-8464 3 c62 -26 68 -48 68 -255 0 -215 -7 -269 -41 -309 -51 -61 -200 -63
-257 -3 -32 34 -35 49 -42 194 -5 113 -4 117 17 133 21 15 21 16 4 13 -18 -3
-20 2 -18 47 3 68 12 126 23 147 28 52 156 69 246 33z m1733 13 c0 -9 3 -9 12
0 7 7 26 12 43 12 l30 0 2 -110 c1 -60 5 -114 8 -120 11 -17 63 -12 69 8 7 22
8 92 2 165 l-4 58 71 -3 72 -3 0 -47 c0 -25 -3 -44 -6 -42 -4 2 -4 -10 1 -28
4 -18 7 -139 6 -268 l-1 -235 -65 0 -65 0 -5 120 c-5 116 -6 120 -28 123 -44
6 -50 -10 -48 -131 l1 -112 -63 -5 c-35 -3 -68 -2 -73 1 -6 3 -9 69 -8 157 2
132 4 152 18 153 12 0 11 2 -3 8 -25 10 -4 25 23 16 11 -3 22 -1 26 5 3 5 2
10 -2 10 -5 0 -13 15 -19 33 -5 17 -15 31 -22 30 -16 -4 -15 6 3 41 12 23 13
32 3 44 -14 17 -14 17 39 -5 11 -4 14 -3 9 5 -4 7 -14 12 -21 12 -9 0 -12 6
-8 16 5 14 3 15 -15 5 -11 -6 -23 -11 -26 -11 -8 0 -7 95 1 103 11 12 43 8 43
-5z m6017 -24 c49 -36 65 -79 60 -165 -3 -65 -7 -80 -29 -104 -26 -27 -26 -28
-7 -48 20 -22 24 -41 34 -157 13 -140 19 -125 -54 -125 -63 0 -64 0 -78 34
-10 23 -12 55 -8 106 5 61 3 76 -13 95 -12 15 -25 21 -35 17 -15 -5 -17 -24
-17 -121 0 -72 -4 -117 -11 -122 -6 -3 -35 -7 -65 -8 -41 -1 -55 2 -58 14 -8
29 -5 594 4 605 5 6 51 8 129 5 100 -5 126 -9 148 -26z m1630 20 c86 -11 125
-72 120 -190 -2 -47 -8 -67 -29 -94 l-26 -33 21 -29 c16 -22 23 -51 29 -126 4
-53 9 -108 10 -122 3 -24 2 -25 -62 -24 -58 1 -66 3 -77 25 -7 14 -13 63 -13
114 0 94 -8 115 -42 115 -14 0 -18 -8 -19 -42 -2 -206 -1 -201 -34 -210 -16
-4 -46 -5 -66 -2 l-37 6 -1 305 c-1 167 0 307 3 311 4 8 155 5 223 -4z m879 1
c8 -2 12 -97 13 -314 l1 -311 -70 0 -70 0 0 238 c-1 130 -3 272 -6 314 l-6 77
29 4 c26 4 84 0 109 -8z m441 -21 c43 -32 63 -80 63 -155 0 -58 -4 -71 -30
-107 -17 -23 -26 -42 -20 -42 18 0 34 -46 41 -125 4 -44 10 -101 14 -127 l8
-47 -69 3 c-68 3 -69 4 -81 37 -7 21 -10 58 -6 96 7 77 -9 126 -41 121 -20 -3
-21 -10 -24 -124 l-3 -122 -43 -6 c-23 -4 -54 -2 -68 3 l-25 10 -1 293 c0 161
4 300 8 308 13 24 240 11 277 -16z m-11114 -241 c-2 -283 -6 -310 -50 -339
-37 -24 -111 -27 -153 -6 -49 24 -70 71 -70 155 l0 68 48 -3 47 -3 3 -45 c4
-50 16 -70 33 -53 7 7 10 93 9 252 l-1 241 68 0 68 0 -2 -267z m775 242 c2
-11 7 -29 12 -40 29 -61 38 -104 29 -139 -5 -20 -13 -52 -18 -71 -5 -21 -5
-35 0 -35 5 0 9 7 9 15 0 22 48 39 67 23 12 -10 14 -7 8 23 -3 19 -2 55 3 81
5 26 6 49 2 50 -5 2 -9 21 -10 43 -5 76 -6 75 55 75 l55 0 0 -49 c0 -41 -4
-51 -20 -56 -20 -6 -26 -20 -12 -28 4 -2 2 -3 -5 -1 -6 1 -13 0 -16 -3 -7 -7
30 -43 45 -43 7 0 5 -5 -4 -12 -9 -7 -26 -29 -37 -48 -12 -19 -21 -29 -21 -22
0 6 -5 12 -10 12 -6 0 -9 -12 -8 -27 2 -21 -2 -28 -22 -33 -23 -6 -22 -8 14
-15 29 -6 42 -4 50 6 6 8 18 13 27 11 13 -2 16 -25 17 -157 1 -85 -2 -155 -6
-155 -4 -1 -30 -3 -58 -5 -27 -2 -55 -1 -61 3 -6 4 -20 45 -32 91 -12 47 -30
108 -40 136 -37 105 -40 100 -41 -67 l0 -158 -44 0 c-80 0 -76 -15 -75 243 0
149 4 236 11 244 7 9 7 13 -1 13 -7 0 -11 22 -11 60 l0 60 72 -3 c64 -2 73 -4
76 -22z m610 13 c6 -7 27 -96 47 -198 20 -102 45 -228 56 -280 29 -144 30
-140 -40 -140 -33 0 -63 4 -66 10 -3 5 -9 29 -13 52 l-8 43 -49 0 c-46 0 -50
-2 -58 -30 -23 -74 -24 -75 -71 -75 -25 0 -47 4 -51 9 -3 5 3 60 14 123 65
389 83 483 94 490 20 13 134 9 145 -4z m563 -9 c5 -8 9 -33 9 -56 0 -46 -4
-49 -75 -55 l-30 -3 3 -225 c2 -124 0 -235 -3 -248 -5 -20 -11 -22 -70 -22
l-65 0 -2 113 c-1 61 -1 123 -1 137 6 117 5 218 -1 228 -4 7 -26 12 -49 12
-23 0 -47 4 -53 8 -17 12 -18 109 0 119 8 4 85 7 172 7 120 -2 159 -5 165 -15z
m908 4 c12 -24 114 -529 115 -573 l1 -35 -62 -3 -61 -3 -12 56 -11 55 -43 0
c-49 0 -66 -13 -66 -51 0 -40 -24 -59 -76 -59 -53 0 -52 -3 -24 155 11 61 32
182 46 270 36 218 29 205 113 205 57 0 72 -3 80 -17z m409 -8 c2 -11 14 -47
27 -80 20 -50 22 -67 14 -98 -5 -20 -13 -53 -18 -72 -5 -19 -5 -35 -1 -35 4 0
10 8 13 19 5 21 57 38 67 21 5 -9 4 171 -1 220 -6 46 -1 50 56 50 l55 0 0 -49
c0 -41 -4 -51 -20 -56 -20 -6 -26 -20 -12 -28 4 -2 2 -3 -5 -1 -6 1 -13 0 -16
-3 -7 -7 30 -43 45 -43 7 0 5 -5 -4 -12 -9 -7 -26 -29 -37 -48 -12 -19 -21
-29 -21 -22 0 6 -5 12 -11 12 -7 0 -9 -9 -5 -24 5 -20 1 -26 -22 -34 l-27 -9
38 -8 c30 -6 41 -4 50 9 7 10 19 15 29 11 14 -5 16 -27 14 -163 l-1 -156 -58
-2 c-62 -2 -87 11 -87 47 0 27 -46 182 -69 232 l-19 42 -1 -157 -1 -158 -44 0
c-82 0 -76 -24 -76 316 l1 304 72 -3 c63 -2 72 -4 75 -22z m2582 0 c0 -14 6
-58 14 -98 8 -40 18 -91 21 -114 8 -48 25 -58 25 -15 0 16 9 77 20 137 11 60
20 109 20 110 0 1 25 3 55 4 32 1 55 -2 55 -8 0 -23 31 -237 36 -251 8 -21 18
8 34 103 7 42 17 77 21 77 5 0 9 19 9 41 l0 41 55 -4 c30 -3 58 -8 61 -11 4
-4 2 -26 -5 -49 -35 -134 -111 -499 -111 -536 0 -12 -6 -22 -12 -23 -15 -1
-100 -1 -109 0 -5 1 -12 61 -25 206 -1 17 -7 41 -12 55 -9 23 -10 20 -16 -25
-4 -27 -14 -91 -22 -141 l-16 -92 -52 -5 c-28 -3 -54 -2 -58 2 -4 3 -14 53
-23 110 -8 57 -20 122 -25 145 -30 132 -65 335 -61 359 1 4 28 7 61 7 58 0 60
-1 60 -25z m884 3 c3 -13 6 -38 6 -55 0 -39 -24 -49 -103 -40 -70 9 -79 1 -75
-64 l3 -54 73 -3 73 -3 -3 -62 -3 -62 -70 -3 c-70 -3 -100 -15 -88 -36 11 -17
12 -36 2 -36 -5 0 -3 -13 5 -29 14 -27 19 -29 78 -30 118 -1 138 -17 124 -95
l-6 -31 -70 0 c-57 0 -72 3 -84 20 -15 20 -15 20 -29 0 -12 -16 -26 -19 -77
-18 -34 1 -64 3 -65 5 -6 7 -7 55 -6 331 l1 287 154 0 c151 0 154 0 160 -22z
m435 4 c58 -29 74 -60 73 -143 0 -57 -4 -77 -22 -101 l-22 -30 25 -26 c33 -35
50 -120 39 -184 -20 -107 -60 -128 -236 -128 -113 0 -126 2 -127 18 -1 22 -1
606 0 610 1 1 54 2 119 2 92 0 124 -4 151 -18z m549 -39 c3 -49 1 -53 -23 -59
-14 -3 -46 -3 -70 1 -70 10 -85 1 -85 -50 0 -72 3 -75 82 -75 l69 0 -3 -62 -3
-63 -60 -3 c-71 -3 -110 -19 -94 -38 5 -7 9 -18 8 -26 -2 -7 0 -25 4 -40 7
-25 10 -27 65 -27 32 0 75 -3 96 -6 l37 -7 -3 -56 -3 -56 -72 -3 c-64 -2 -72
-1 -78 17 -7 23 -35 27 -35 6 0 -16 -38 -23 -101 -18 l-46 4 0 301 c0 166 2
305 4 310 3 4 73 6 156 5 l152 -3 3 -52z m1686 41 c3 -9 6 -33 6 -55 0 -33 -4
-40 -25 -45 -14 -4 -44 -4 -66 0 -21 3 -51 3 -64 0 -22 -5 -25 -12 -25 -49 0
-72 3 -75 82 -75 l69 0 -3 -62 -3 -63 -60 -3 c-33 -1 -70 -7 -82 -13 -18 -10
-20 -15 -10 -31 10 -15 9 -21 -3 -28 -12 -8 -12 -10 -1 -10 8 0 11 -3 8 -6 -3
-4 -2 -15 3 -25 8 -14 23 -18 73 -18 96 -1 121 -11 125 -51 7 -69 0 -76 -75
-77 -59 -2 -70 1 -85 20 -15 20 -18 21 -30 6 -17 -22 -53 -29 -105 -22 l-43 6
0 308 1 309 153 0 c131 0 155 -2 160 -16z m980 -27 c15 -59 1 -72 -75 -73
-107 -1 -100 3 -97 -61 l3 -58 73 -3 72 -3 0 -49 c0 -77 -3 -80 -81 -80 -39 0
-69 -4 -69 -10 0 -5 -8 -10 -17 -10 -14 0 -15 -2 -5 -9 8 -5 12 -17 10 -27 -3
-11 1 -31 9 -46 11 -24 18 -27 66 -27 67 0 127 -10 128 -22 0 -5 1 -22 1 -39
0 -70 4 -67 -69 -68 -58 0 -71 3 -86 21 -17 22 -18 22 -32 3 -12 -15 -27 -19
-75 -19 -34 1 -64 3 -67 6 -3 4 -7 572 -3 615 0 1 69 1 153 0 l152 -3 9 -38z
m1198 29 c8 -7 24 -63 36 -122 54 -264 82 -419 82 -455 l0 -40 -57 3 c-62 3
-62 3 -78 81 -5 27 -8 28 -53 25 -42 -3 -47 -6 -56 -33 -22 -75 -22 -75 -76
-75 -33 0 -50 4 -50 13 0 19 29 193 45 272 8 39 23 128 34 199 12 75 26 133
33 138 22 13 125 9 140 -6z m-10739 -237 c-5 -5 -9 3 -11 19 -1 24 0 25 9 9 7
-11 7 -23 2 -28z m2490 0 c-5 -5 -9 3 -11 19 -1 24 0 25 9 9 7 -11 7 -23 2
-28z"/>
<path d="M5192 1497 l-242 -242 243 -243 242 -242 243 243 242 242 -243 243
-242 242 -243 -243z m431 -55 c97 -97 177 -182 177 -187 0 -5 -82 -92 -182
-192 l-183 -183 -187 187 -188 188 182 182 c101 101 187 183 193 183 6 0 90
-80 188 -178z"/>
<path d="M5347 1342 l-87 -87 88 -88 87 -87 88 88 87 87 -88 88 -87 87 -88
-88z m125 -118 c-15 -18 -32 -33 -38 -33 -5 -1 -23 13 -39 29 l-29 30 34 35
34 35 33 -32 32 -31 -27 -33z"/>
<path d="M9592 1303 c3 -71 5 -78 25 -81 33 -5 44 45 27 131 -4 21 -11 27 -30
27 -25 0 -25 -1 -22 -77z"/>
<path d="M1121 1372 c-5 -10 -10 -95 -10 -188 -1 -156 0 -172 18 -188 12 -11
27 -15 44 -11 23 6 25 11 30 88 3 45 5 104 3 130 -3 42 0 50 18 57 17 7 18 9
4 9 -14 1 -18 10 -18 35 0 59 -15 86 -49 86 -19 0 -34 -7 -40 -18z"/>
<path d="M1283 1263 c9 -2 23 -2 30 0 6 3 -1 5 -18 5 -16 0 -22 -2 -12 -5z"/>
<path d="M1160 941 c0 -6 4 -13 10 -16 6 -3 7 1 4 9 -7 18 -14 21 -14 7z"/>
<path d="M3028 1479 c-10 -5 -18 -20 -17 -32 0 -15 2 -17 6 -7 3 8 12 23 21
33 17 19 15 21 -10 6z"/>
<path d="M3006 1412 c-5 -4 39 -52 48 -52 2 0 1 11 -1 24 -5 22 -35 41 -47 28z"/>
<path d="M2986 1175 c-3 -8 -1 -15 4 -15 6 0 10 7 10 15 0 8 -2 15 -4 15 -2 0
-6 -7 -10 -15z"/>
<path d="M8889 1383 c-22 -3 -28 -11 -32 -40 -7 -38 1 -90 13 -98 5 -3 20 -1
34 5 23 8 26 15 26 59 0 27 -5 53 -10 56 -6 4 -8 11 -5 16 4 5 5 8 3 8 -2 -1
-15 -4 -29 -6z"/>
<path d="M10545 1338 c-6 -38 6 -98 19 -98 3 0 16 4 30 10 22 8 26 16 26 47 0
65 -9 83 -41 83 -25 0 -28 -4 -34 -42z"/>
<path d="M11838 1382 c-30 -4 -34 -18 -29 -92 3 -45 12 -53 44 -41 24 9 27 15
26 58 -1 65 -8 79 -41 75z"/>
<path d="M1780 1431 c0 -5 5 -13 10 -16 6 -3 10 -2 10 4 0 5 -4 13 -10 16 -5
3 -10 2 -10 -4z"/>
<path d="M1600 1390 c0 -5 5 -10 10 -10 6 0 10 5 10 10 0 6 -4 10 -10 10 -5 0
-10 -4 -10 -10z"/>
<path d="M1753 1318 c-2 -18 0 -20 7 -8 12 18 13 30 2 30 -4 0 -9 -10 -9 -22z"/>
<path d="M2146 1239 c-24 -84 -35 -144 -28 -151 5 -5 22 -6 37 -2 l28 7 -6 70
c-6 68 -21 107 -31 76z"/>
<path d="M2668 1383 c6 -2 18 -2 25 0 6 3 1 5 -13 5 -14 0 -19 -2 -12 -5z"/>
<path d="M2600 1300 c0 -5 5 -10 10 -10 6 0 10 5 10 10 0 6 -4 10 -10 10 -5 0
-10 -4 -10 -10z"/>
<path d="M3616 1240 c-22 -65 -38 -142 -30 -150 5 -5 22 -6 38 -3 l29 6 -6 64
c-7 69 -22 110 -31 83z"/>
<path d="M4270 1431 c0 -5 5 -13 10 -16 6 -3 10 -2 10 4 0 5 -4 13 -10 16 -5
3 -10 2 -10 -4z"/>
<path d="M4243 1320 c-1 -11 2 -20 5 -20 4 0 8 9 9 20 1 11 -2 20 -5 20 -4 0
-8 -9 -9 -20z"/>
<path d="M7870 1325 l0 -65 30 0 c23 0 31 5 36 25 9 36 -4 92 -22 99 -39 15
-44 8 -44 -59z"/>
<path d="M7950 1355 c7 -9 15 -13 17 -11 7 7 -7 26 -19 26 -6 0 -6 -6 2 -15z"/>
<path d="M7879 1143 c-5 -29 -5 -83 -1 -110 3 -27 9 -33 28 -33 29 0 33 7 40
65 4 36 1 52 -12 66 -17 19 -53 26 -55 12z"/>
<path d="M12347 1240 c-23 -75 -37 -144 -30 -151 4 -4 21 -5 37 -2 l29 6 -6
64 c-7 68 -22 110 -30 83z"/>
</g>
</svg>
